<svg id="レイヤー_1" data-name="レイヤー 1" xmlns="http://www.w3.org/2000/svg" viewBox="0 0 811.34 161.27"><defs><style>.cls-1{fill:#231815;}.cls-2{fill:#e72922;}</style></defs><path class="cls-1" d="M74.26,153.08H51.64l-12-67.39,2.31-13.08H63.23l8.11-46H44L21.69,153.08H0L25.58,8H83.15Q96.22,8,93.87,21.35L84.57,74.1Q82.95,83.28,76.26,86q-3.57,1.4-14.33,1.39Z"/><path class="cls-1" d="M147.68,153.08H87.51L113.09,8H172.7l-3.38,19.19H131.4l-7.47,42.37h32.63l-3.31,18.81H120.61l-8,45.52h38.47Z"/><path class="cls-2" d="M603.87,153.08H582.18L607.76,8h21.69Z"/><path class="cls-2" d="M697.15,139.82q-2.34,13.26-15.5,13.26H634.56q-12.88,0-10.55-13.26L644.9,21.35Q647.26,8,660.14,8h47.09Q720.4,8,718,21.35Zm-20.74-5.37,19-107.82H665.66l-19,107.82Z"/><path class="cls-2" d="M785.76,153.08h-19L748.09,61.77a53.48,53.48,0,0,1-.46,10.47l-14.25,80.84H712.24L737.82,8h19l19,89.46A54.58,54.58,0,0,1,776.27,87L790.2,8h21.14Z"/><path class="cls-1" d="M207.91,18.63h29.76l-9.51,53.91h21.69l10.44-59.19Q262.65,0,249.48,0H202.67Q189.5,0,187.15,13.35L176.71,72.54H198.4Z"/><polygon class="cls-1" points="355.53 0 333.84 0 321.05 72.54 342.74 72.54 355.53 0"/><polygon class="cls-1" points="304.64 0 282.95 0 270.16 72.54 291.85 72.54 304.64 0"/><polygon class="cls-1" points="416.43 61.55 383.8 61.55 391.27 19.19 429.19 19.19 432.57 0 372.96 0 360.17 72.54 414.5 72.54 416.43 61.55"/><path class="cls-1" d="M461.44,44.5l4.62-26.24h26.52l-4.83,27.35h21.7l5.72-32.45Q517.48,0,504.32,0H460.66Q447.6,0,445.24,13.35l-5.69,32.26q-1.24,7.05,2.68,11.59l13.5,15.34h30.52Z"/><polygon class="cls-1" points="594.38 19.19 597.77 0 528.33 0 524.95 19.19 548.87 19.19 539.46 72.54 561.06 72.54 570.47 19.19 594.38 19.19"/><path class="cls-2" d="M174,161.08h47.1q9.18,0,13-7.23l8.42,7.42H244l3.51-19.93L239,134.29,247,88.54H225.34l-4.93,27.95-9.9-8.53h-1.29l-3.49,19.75,11,9.64-.9,5.1H186.08l9.5-53.91H173.89l-10.45,59.28Q161.1,161.08,174,161.08Z"/><path class="cls-2" d="M267.71,161.08h46.07q13.35,0,15.69-13.26l10.45-59.28H318.23l-9.51,53.91h-29.2L289,88.54H267.34l-10.46,59.28Q254.54,161.08,267.71,161.08Z"/><polygon class="cls-2" points="404.73 161.08 408.11 141.89 369.64 141.89 377.66 96.38 410.3 96.38 411.68 88.54 357.35 88.54 344.56 161.08 404.73 161.08"/><path class="cls-2" d="M470.61,142.82H444.1l5.21-29.57H427.62l-6.1,34.57q-2.32,13.26,10.74,13.26h43.66q13.17,0,15.5-13.26l6.1-34.57q1.29-7.34-2.65-11.78L483.42,88.54H452.91l22.72,25.82Z"/><polygon class="cls-2" points="523.85 161.08 545.45 161.08 558.24 88.54 536.64 88.54 523.85 161.08"/></svg>